<mxfile host="drawio-plugin" modified="2022-12-06T00:35:05.440Z" agent="5.0 (Windows NT 6.2; Win64; x64) AppleWebKit/537.36 (KHTML, like Gecko) Chrome/104.0.5112.102 Safari/537.36" etag="8a7QGyZFCD985TbExC4o" version="20.5.3" type="embed"><diagram id="23iRSUPoRavnBvh4doch" name="Page-1"><mxGraphModel dx="493" dy="455" grid="1" gridSize="10" guides="1" tooltips="1" connect="1" arrows="1" fold="1" page="1" pageScale="1" pageWidth="1200" pageHeight="1600" math="0" shadow="0"><root><mxCell id="0"/><mxCell id="1" parent="0"/><mxCell id="2" value="course" style="swimlane;fontStyle=1;align=center;verticalAlign=top;childLayout=stackLayout;horizontal=1;startSize=26;horizontalStack=0;resizeParent=1;resizeParentMax=0;resizeLast=0;collapsible=1;marginBottom=0;rounded=1;sketch=1;" parent="1" vertex="1"><mxGeometry x="50" y="70" width="190" height="210" as="geometry"/></mxCell><mxCell id="3" value="+ studentlist: list&#10;+ teacher: str&#10;+ coursetype: bool&#10;+ credit: int&#10;+ name: str&#10;+ studentnum = int" style="text;strokeColor=none;fillColor=none;align=left;verticalAlign=top;spacingLeft=4;spacingRight=4;overflow=hidden;rotatable=0;points=[[0,0.5],[1,0.5]];portConstraint=eastwest;rounded=1;sketch=1;" parent="2" vertex="1"><mxGeometry y="26" width="190" height="114" as="geometry"/></mxCell><mxCell id="4" value="" style="line;strokeWidth=1;fillColor=none;align=left;verticalAlign=middle;spacingTop=-1;spacingLeft=3;spacingRight=3;rotatable=0;labelPosition=right;points=[];portConstraint=eastwest;strokeColor=inherit;rounded=1;sketch=1;" parent="2" vertex="1"><mxGeometry y="140" width="190" height="8" as="geometry"/></mxCell><mxCell id="5" value="+ addstudent(): list&#10;+ delstudent(): list" style="text;strokeColor=none;fillColor=none;align=left;verticalAlign=top;spacingLeft=4;spacingRight=4;overflow=hidden;rotatable=0;points=[[0,0.5],[1,0.5]];portConstraint=eastwest;rounded=1;sketch=1;" parent="2" vertex="1"><mxGeometry y="148" width="190" height="62" as="geometry"/></mxCell><mxCell id="10" value="insystem" style="swimlane;fontStyle=1;align=center;verticalAlign=top;childLayout=stackLayout;horizontal=1;startSize=26;horizontalStack=0;resizeParent=1;resizeParentMax=0;resizeLast=0;collapsible=1;marginBottom=0;rounded=1;sketch=1;" parent="1" vertex="1"><mxGeometry x="310" y="150" width="160" height="170" as="geometry"/></mxCell><mxCell id="11" value="+ type: student,teacher,officer&#10;- state: bool&#10;" style="text;strokeColor=none;fillColor=none;align=left;verticalAlign=top;spacingLeft=4;spacingRight=4;overflow=hidden;rotatable=0;points=[[0,0.5],[1,0.5]];portConstraint=eastwest;rounded=1;sketch=1;" parent="10" vertex="1"><mxGeometry y="26" width="160" height="74" as="geometry"/></mxCell><mxCell id="12" value="" style="line;strokeWidth=1;fillColor=none;align=left;verticalAlign=middle;spacingTop=-1;spacingLeft=3;spacingRight=3;rotatable=0;labelPosition=right;points=[];portConstraint=eastwest;strokeColor=inherit;rounded=1;sketch=1;" parent="10" vertex="1"><mxGeometry y="100" width="160" height="8" as="geometry"/></mxCell><mxCell id="13" value="+ isright: bool&#10;+ reset: str,str" style="text;strokeColor=none;fillColor=none;align=left;verticalAlign=top;spacingLeft=4;spacingRight=4;overflow=hidden;rotatable=0;points=[[0,0.5],[1,0.5]];portConstraint=eastwest;rounded=1;sketch=1;" parent="10" vertex="1"><mxGeometry y="108" width="160" height="62" as="geometry"/></mxCell><mxCell id="19" value="officer" style="swimlane;fontStyle=1;align=center;verticalAlign=top;childLayout=stackLayout;horizontal=1;startSize=26;horizontalStack=0;resizeParent=1;resizeParentMax=0;resizeLast=0;collapsible=1;marginBottom=0;rounded=1;sketch=1;" parent="1" vertex="1"><mxGeometry x="770" y="209" width="160" height="208" as="geometry"/></mxCell><mxCell id="20" value="+ name: str" style="text;strokeColor=none;fillColor=none;align=left;verticalAlign=top;spacingLeft=4;spacingRight=4;overflow=hidden;rotatable=0;points=[[0,0.5],[1,0.5]];portConstraint=eastwest;rounded=1;sketch=1;" parent="19" vertex="1"><mxGeometry y="26" width="160" height="44" as="geometry"/></mxCell><mxCell id="22" value="+ Createstudent: str&#10;+ setcredit: int&#10;+ seeprofile:&#10;+ createcourse:&#10;+ changecourse:&#10;+ seecourse:&#10;+ seestudentcourse:" style="text;strokeColor=none;fillColor=none;align=left;verticalAlign=top;spacingLeft=4;spacingRight=4;overflow=hidden;rotatable=0;points=[[0,0.5],[1,0.5]];portConstraint=eastwest;rounded=1;sketch=1;" parent="19" vertex="1"><mxGeometry y="70" width="160" height="130" as="geometry"/></mxCell><mxCell id="21" value="" style="line;strokeWidth=1;fillColor=none;align=left;verticalAlign=middle;spacingTop=-1;spacingLeft=3;spacingRight=3;rotatable=0;labelPosition=right;points=[];portConstraint=eastwest;strokeColor=inherit;rounded=1;sketch=1;" parent="19" vertex="1"><mxGeometry y="200" width="160" height="8" as="geometry"/></mxCell><mxCell id="26" value="student" style="swimlane;fontStyle=1;align=center;verticalAlign=top;childLayout=stackLayout;horizontal=1;startSize=26;horizontalStack=0;resizeParent=1;resizeParentMax=0;resizeLast=0;collapsible=1;marginBottom=0;rounded=1;sketch=1;" parent="1" vertex="1"><mxGeometry x="550" y="250" width="160" height="170" as="geometry"/></mxCell><mxCell id="27" value="+ name: str" style="text;strokeColor=none;fillColor=none;align=left;verticalAlign=top;spacingLeft=4;spacingRight=4;overflow=hidden;rotatable=0;points=[[0,0.5],[1,0.5]];portConstraint=eastwest;rounded=1;sketch=1;" parent="26" vertex="1"><mxGeometry y="26" width="160" height="54" as="geometry"/></mxCell><mxCell id="28" value="" style="line;strokeWidth=1;fillColor=none;align=left;verticalAlign=middle;spacingTop=-1;spacingLeft=3;spacingRight=3;rotatable=0;labelPosition=right;points=[];portConstraint=eastwest;strokeColor=inherit;rounded=1;sketch=1;" parent="26" vertex="1"><mxGeometry y="80" width="160" height="8" as="geometry"/></mxCell><mxCell id="29" value="+ seerequire(): &#10;+ seestucourse():&#10;+ addcourse(): str &#10;+ dropcourse(): str&#10;+ credit():" style="text;strokeColor=none;fillColor=none;align=left;verticalAlign=top;spacingLeft=4;spacingRight=4;overflow=hidden;rotatable=0;points=[[0,0.5],[1,0.5]];portConstraint=eastwest;rounded=1;sketch=1;" parent="26" vertex="1"><mxGeometry y="88" width="160" height="82" as="geometry"/></mxCell><mxCell id="30" value="+ studentsystem: dict " style="text;strokeColor=none;fillColor=none;align=left;verticalAlign=top;spacingLeft=4;spacingRight=4;overflow=hidden;rotatable=0;points=[[0,0.5],[1,0.5]];portConstraint=eastwest;rounded=1;sketch=1;" parent="1" vertex="1"><mxGeometry x="490" y="50" width="170" height="26" as="geometry"/></mxCell><mxCell id="31" value="+ teachersystem: dict" style="text;strokeColor=none;fillColor=none;align=left;verticalAlign=top;spacingLeft=4;spacingRight=4;overflow=hidden;rotatable=0;points=[[0,0.5],[1,0.5]];portConstraint=eastwest;rounded=1;sketch=1;" parent="1" vertex="1"><mxGeometry x="670" y="70" width="170" height="26" as="geometry"/></mxCell><mxCell id="32" value="+ officersystem: dict" style="text;strokeColor=none;fillColor=none;align=left;verticalAlign=top;spacingLeft=4;spacingRight=4;overflow=hidden;rotatable=0;points=[[0,0.5],[1,0.5]];portConstraint=eastwest;rounded=1;sketch=1;" parent="1" vertex="1"><mxGeometry x="740" y="104" width="130" height="26" as="geometry"/></mxCell><mxCell id="36" value="" style="endArrow=open;endFill=1;endSize=12;html=1;rounded=1;sketch=1;curved=1;" parent="1" source="30" target="10" edge="1"><mxGeometry width="160" relative="1" as="geometry"><mxPoint x="330" y="63" as="sourcePoint"/><mxPoint x="330" y="63" as="targetPoint"/><Array as="points"><mxPoint x="390" y="63"/></Array></mxGeometry></mxCell><mxCell id="37" value="" style="endArrow=open;endFill=1;endSize=12;html=1;rounded=1;entryX=0.75;entryY=0;entryDx=0;entryDy=0;sketch=1;curved=1;" parent="1" source="31" target="10" edge="1"><mxGeometry width="160" relative="1" as="geometry"><mxPoint x="510" y="83" as="sourcePoint"/><mxPoint x="510" y="90" as="targetPoint"/><Array as="points"><mxPoint x="590" y="80"/></Array></mxGeometry></mxCell><mxCell id="39" value="" style="endArrow=open;endFill=1;endSize=12;html=1;rounded=1;sketch=1;curved=1;" parent="1" source="32" target="10" edge="1"><mxGeometry width="160" relative="1" as="geometry"><mxPoint x="580" y="117" as="sourcePoint"/><mxPoint x="580" y="117" as="targetPoint"/></mxGeometry></mxCell></root></mxGraphModel></diagram></mxfile>